HIERARCHY
ROOT hip
{
  OFFSET -165.33 85.5216 0.572682
  CHANNELS 6 Xposition Yposition Zposition Zrotation Xrotation Yrotation
  JOINT abdomen
  {
    OFFSET 0 20.6881 -0.73152
    CHANNELS 3 Zrotation Xrotation Yrotation
    JOINT chest
    {
      OFFSET 0 11.7043 -0.48768
      CHANNELS 3 Zrotation Xrotation Yrotation
      JOINT neck
      {
        OFFSET 0 22.1894 -2.19456
        CHANNELS 3 Zrotation Xrotation Yrotation
        JOINT head
        {
          OFFSET -0.24384 7.07133 1.2192
          CHANNELS 3 Zrotation Xrotation Yrotation
          JOINT leftEye
          {
            OFFSET 4.14528 8.04674 8.04672
            CHANNELS 3 Zrotation Xrotation Yrotation
            End Site
            {
              OFFSET 1 0 0
            }
          }
          JOINT rightEye
          {
            OFFSET -3.6576 8.04674 8.04672
            CHANNELS 3 Zrotation Xrotation Yrotation
            End Site
            {
              OFFSET 1 0 0
            }
          }
        }
      }
      JOINT rCollar
      {
        OFFSET -2.68224 19.2634 -4.8768
        CHANNELS 3 Zrotation Xrotation Yrotation
        JOINT rShldr
        {
          OFFSET -8.77824 -1.95073 1.46304
          CHANNELS 3 Zrotation Xrotation Yrotation
          JOINT rForeArm
          {
            OFFSET -28.1742 -1.7115 0.48768
            CHANNELS 3 Zrotation Xrotation Yrotation
            JOINT rHand
            {
              OFFSET -22.5879 0.773209 7.07136
              CHANNELS 3 Zrotation Xrotation Yrotation
              JOINT rThumb1
              {
                OFFSET -1.2192 -0.487915 3.41376
                CHANNELS 3 Zrotation Xrotation Yrotation
                JOINT rThumb2
                {
                  OFFSET -3.37035 -0.52449 3.41376
                  CHANNELS 3 Zrotation Xrotation Yrotation
                  End Site
                  {
                    OFFSET -1.78271 -1.18214 1.43049
                  }
                }
              }
              JOINT rIndex1
              {
                OFFSET -7.75947 0.938293 5.60832
                CHANNELS 3 Zrotation Xrotation Yrotation
                JOINT rIndex2
                {
                  OFFSET -2.54057 -0.884171 1.56538
                  CHANNELS 3 Zrotation Xrotation Yrotation
                  End Site
                  {
                    OFFSET -1.62519 -0.234802 1.16502
                  }
                }
              }
              JOINT rMid1
              {
                OFFSET -8.24714 1.18213 3.41376
                CHANNELS 3 Zrotation Xrotation Yrotation
                JOINT rMid2
                {
                  OFFSET -3.10165 -0.590103 1.0647
                  CHANNELS 3 Zrotation Xrotation Yrotation
                  End Site
                  {
                    OFFSET -2.48547 -0.328903 0.83742
                  }
                }
              }
              JOINT rRing1
              {
                OFFSET -8.82822 0.546677 1.51678
                CHANNELS 3 Zrotation Xrotation Yrotation
                JOINT rRing2
                {
                  OFFSET -2.60934 -0.819778 -0.0198488
                  CHANNELS 3 Zrotation Xrotation Yrotation
                  End Site
                  {
                    OFFSET -2.33842 -0.294052 0.168128
                  }
                }
              }
              JOINT rPinky1
              {
                OFFSET -8.27202 -0.0477905 -0.4584
                CHANNELS 3 Zrotation Xrotation Yrotation
                JOINT rPinky2
                {
                  OFFSET -1.82734 -0.647385 -0.700984
                  CHANNELS 3 Zrotation Xrotation Yrotation
                  End Site
                  {
                    OFFSET -1.69225 -0.51767 -0.607171
                  }
                }
              }
            }
          }
        }
      }
      JOINT lCollar
      {
        OFFSET 2.68224 19.2634 -4.8768
        CHANNELS 3 Zrotation Xrotation Yrotation
        JOINT lShldr
        {
          OFFSET 8.77824 -1.95073 1.46304
          CHANNELS 3 Zrotation Xrotation Yrotation
          JOINT lForeArm
          {
            OFFSET 28.1742 -1.7115 0.48768
            CHANNELS 3 Zrotation Xrotation Yrotation
            JOINT lHand
            {
              OFFSET 22.5879 0.773209 7.07136
              CHANNELS 3 Zrotation Xrotation Yrotation
              JOINT lThumb1
              {
                OFFSET 1.2192 -0.487915 3.41376
                CHANNELS 3 Zrotation Xrotation Yrotation
                JOINT lThumb2
                {
                  OFFSET 3.37035 -0.52449 3.41376
                  CHANNELS 3 Zrotation Xrotation Yrotation
                  End Site
                  {
                    OFFSET 1.78271 -1.18214 1.43049
                  }
                }
              }
              JOINT lIndex1
              {
                OFFSET 7.75947 0.938293 5.60832
                CHANNELS 3 Zrotation Xrotation Yrotation
                JOINT lIndex2
                {
                  OFFSET 2.54057 -0.884171 1.56538
                  CHANNELS 3 Zrotation Xrotation Yrotation
                  End Site
                  {
                    OFFSET 1.62519 -0.234802 1.16502
                  }
                }
              }
              JOINT lMid1
              {
                OFFSET 8.24714 1.18213 3.41376
                CHANNELS 3 Zrotation Xrotation Yrotation
                JOINT lMid2
                {
                  OFFSET 3.10165 -0.590103 1.0647
                  CHANNELS 3 Zrotation Xrotation Yrotation
                  End Site
                  {
                    OFFSET 2.48547 -0.328903 0.83742
                  }
                }
              }
              JOINT lRing1
              {
                OFFSET 8.82822 0.546677 1.51678
                CHANNELS 3 Zrotation Xrotation Yrotation
                JOINT lRing2
                {
                  OFFSET 2.60934 -0.819778 -0.0198488
                  CHANNELS 3 Zrotation Xrotation Yrotation
                  End Site
                  {
                    OFFSET 2.33842 -0.294052 0.168128
                  }
                }
              }
              JOINT lPinky1
              {
                OFFSET 8.27202 -0.0477905 -0.4584
                CHANNELS 3 Zrotation Xrotation Yrotation
                JOINT lPinky2
                {
                  OFFSET 1.82734 -0.647385 -0.700984
                  CHANNELS 3 Zrotation Xrotation Yrotation
                  End Site
                  {
                    OFFSET 1.69225 -0.51767 -0.607171
                  }
                }
              }
            }
          }
        }
      }
    }
  }
  JOINT rButtock
  {
    OFFSET -8.77824 4.35084 1.2192
    CHANNELS 3 Zrotation Xrotation Yrotation
    JOINT rThigh
    {
      OFFSET 0 -1.70687 -2.19456
      CHANNELS 3 Zrotation Xrotation Yrotation
      JOINT rShin
      {
        OFFSET 0 -36.8199 0.73152
        CHANNELS 3 Zrotation Xrotation Yrotation
        JOINT rFoot
        {
          OFFSET 0.73152 -45.1104 -5.12064
          CHANNELS 3 Zrotation Xrotation Yrotation
          End Site
          {
            OFFSET -1.1221 -3.69964 12.103
          }
        }
      }
    }
  }
  JOINT lButtock
  {
    OFFSET 8.77824 4.35084 1.2192
    CHANNELS 3 Zrotation Xrotation Yrotation
    JOINT lThigh
    {
      OFFSET 0 -1.70687 -2.19456
      CHANNELS 3 Zrotation Xrotation Yrotation
      JOINT lShin
      {
        OFFSET 0 -36.8199 0.73152
        CHANNELS 3 Zrotation Xrotation Yrotation
        JOINT lFoot
        {
          OFFSET -0.73152 -45.1104 -5.12064
          CHANNELS 3 Zrotation Xrotation Yrotation
          End Site
          {
            OFFSET 1.1221 -3.69964 12.103
          }
        }
      }
    }
  }
}
MOTION
Frames:	5
Frame Time:	0.00833333
-176.151 85.4571 12.0258 -1.46714 0.00515052 0.0277567 1.92989 -0.0017225 0.0523858 0.532111 0.00506959 0.0921276 -8.07953e-014 0 -2.48481e-016 -2.4202e-013 3.18055e-015 -6.47603e-016 -0 0 0 -0 0 0 -4.04049e-014 1.28899e-016 4.96962e-017 -8.45166e-013 2.91344e-015 -4.17448e-015 -1.45921e-011 4.45476e-012 8.26944e-014 -1.6686e-010 -3.85774e-012 -7.06083e-013 -3.9363e-010 1.29274e-012 -1.2754e-012 -6.79801e-010 2.23593e-012 -2.20412e-012 -3.93625e-010 1.29409e-012 -1.29131e-012 7.73091 5.47488 0.417314 -3.93629e-010 1.2928e-012 -1.2754e-012 2.90554 0.965183 0.102902 -3.93624e-010 1.29329e-012 -1.27858e-012 10.2786 0.731801 0.0259123 -3.93629e-010 1.29608e-012 -1.2754e-012 2.22167 -0.733487 -0.20892 -4.05031e-014 1.28705e-016 -2.48481e-016 -8.46998e-013 2.80783e-015 -5.56597e-015 -1.45646e-011 -4.27467e-012 6.99722e-014 -1.66848e-010 4.86421e-012 -6.64736e-013 -3.93542e-010 1.2775e-012 -1.2754e-012 -6.79624e-010 2.2073e-012 -2.19299e-012 -3.93547e-010 1.27978e-012 -1.26904e-012 -7.73091 5.47488 -0.417314 -3.93541e-010 1.27789e-012 -1.27222e-012 -2.90554 0.965183 -0.102902 -3.93548e-010 1.27769e-012 -1.27779e-012 -10.2786 0.731801 -0.0259123 -3.93539e-010 1.27938e-012 -1.28176e-012 -2.22167 -0.733487 0.20892 -2.03217e-016 0 -3.88251e-019 1.95942 -7.26117 -0.192013 0.00412075 7.58531 0.107064 -0.521238 -0.330681 0.0523223 2.03217e-016 0 3.88251e-019 0.979849 -1.92613 0.000816957 0.00896495 -2.0786 0.0738664 0.484691 3.9981 -0.136267 
-169.499 85.3977 3.38719 -1.4242 -0.294023 24.0825 0.726572 0.780185 0.900759 1.18959 -0.135264 0.35067 0.932888 -1.08345 0.206595 -0.343534 1.03699 0.212866 -0 0 0 -0 0 0 -1.49981e-014 6.80555e-013 -2.7791e-015 -4.26744 -0.930068 -0.0243281 0.400325 0.176071 -0.585758 -0.00158204 -0.170064 -0.0238347 -9.48798e-011 -4.69799e-009 -5.12943e-010 -1.63223e-010 -8.11477e-009 -8.85833e-010 -9.48754e-011 -4.69799e-009 -5.12957e-010 7.73091 5.47488 0.417314 -9.48794e-011 -4.69799e-009 -5.12944e-010 2.90554 0.965183 0.102902 -9.48729e-011 -4.69799e-009 -5.12947e-010 10.2786 0.731801 0.0259123 -9.48794e-011 -4.69799e-009 -5.12943e-010 2.22167 -0.733487 -0.20892 -1.50776e-014 6.80555e-013 -3.01943e-015 -22.1887 9.97997 -1.47042 3.10194 -1.2424 -5.0112 -0.04839 4.88282 -0.677265 1.55817e-009 -6.28784e-010 -9.36745e-010 2.67954e-009 -1.08672e-009 -1.64556e-009 1.55817e-009 -6.28783e-010 -9.3674e-010 -7.73091 5.47488 -0.417314 1.55817e-009 -6.28783e-010 -9.36742e-010 -2.90554 0.965183 -0.102902 1.55817e-009 -6.28785e-010 -9.36747e-010 -10.2786 0.731801 -0.0259123 1.55818e-009 -6.28782e-010 -9.36751e-010 -2.22167 -0.733487 0.20892 -2.03217e-016 0 -3.88251e-019 0.358942 -5.27447 -0.796621 0.00341357 8.27813 0.123119 -0.476325 -4.45437 -0.0434801 2.03217e-016 0 3.88251e-019 2.10032 0.532127 0.10576 0.00610129 -2.14898 0.0515049 0.596822 1.0042 2.34426 
-169.516 85.3898 3.44638 -1.33445 -0.935957 49.5406 -0.521667 1.60204 1.79968 1.87931 -0.278189 0.62433 1.92426 -2.2319 0.42521 -0.710033 2.12793 0.438332 -0 0 0 -0 0 0 1.02393e-014 1.29272e-012 -5.57218e-015 -10.0483 -2.48018 -0.0649271 1.07553 0.469373 -1.56207 -0.0045332 -0.453504 -0.0635609 2.09488e-010 -9.89995e-009 -1.04344e-009 3.63323e-010 -1.71001e-008 -1.80178e-009 2.09492e-010 -9.89997e-009 -1.04345e-009 7.73091 5.47488 0.417314 2.09489e-010 -9.89996e-009 -1.04344e-009 2.90554 0.965183 0.102902 2.09496e-010 -9.89997e-009 -1.04344e-009 10.2786 0.731801 0.0259123 2.09489e-010 -9.89995e-009 -1.04344e-009 2.22167 -0.733487 -0.20892 1.01803e-014 1.29272e-012 -5.74923e-015 -45.0519 20.5061 -3.19135 6.14549 -2.52392 -10.3158 0.0277426 10.0428 -1.40984 3.77051e-009 -1.34268e-009 -1.97883e-009 6.48751e-009 -2.32058e-009 -3.4769e-009 3.77051e-009 -1.34268e-009 -1.97883e-009 -7.73091 5.47488 -0.417314 3.77051e-009 -1.34268e-009 -1.97883e-009 -2.90554 0.965183 -0.102902 3.77051e-009 -1.34268e-009 -1.97884e-009 -10.2786 0.731801 -0.0259123 3.77052e-009 -1.34268e-009 -1.97884e-009 -2.22167 -0.733487 0.20892 -2.03217e-016 0 -3.88251e-019 -1.22217 -3.1892 -1.40315 0.00223722 9.01007 0.140132 -0.448741 -8.81586 -0.176876 2.03217e-016 0 3.88251e-019 3.33136 3.11813 0.214437 0.00305584 -2.21964 0.0278826 0.997283 -2.14995 4.97191 
-169.518 85.3859 3.43955 -0.802876 -0.298636 72.1933 -1.74956 2.34188 2.59943 2.50835 -0.41589 0.867774 2.82213 -3.25019 0.620672 -1.05374 3.1108 0.639437 -0 0 0 -0 0 0 3.58155e-014 2.04141e-012 -8.4367e-015 -12.8047 -2.7902 -0.0730612 1.21177 0.527993 -1.75734 -0.00517061 -0.510191 -0.0715066 5.0262e-010 -1.40965e-008 -1.53628e-009 8.69931e-010 -2.43488e-008 -2.65309e-009 5.02623e-010 -1.40966e-008 -1.53629e-009 7.73091 5.47488 0.417314 5.02621e-010 -1.40966e-008 -1.53628e-009 2.90554 0.965183 0.102902 5.02629e-010 -1.40966e-008 -1.53628e-009 10.2786 0.731801 0.0259123 5.02621e-010 -1.40965e-008 -1.53628e-009 2.22167 -0.733487 -0.20892 3.57734e-014 2.04141e-012 -8.56133e-015 -64.8314 29.8548 -5.01088 8.66107 -3.61334 -15.0607 0.210943 14.6401 -2.09238 5.4616e-009 -1.88891e-009 -2.80768e-009 9.39786e-009 -3.26458e-009 -4.9323e-009 5.4616e-009 -1.88891e-009 -2.80768e-009 -7.73091 5.47488 -0.417314 5.4616e-009 -1.88891e-009 -2.80768e-009 -2.90554 0.965183 -0.102902 5.46159e-009 -1.88891e-009 -2.80769e-009 -10.2786 0.731801 -0.0259123 5.4616e-009 -1.88891e-009 -2.80769e-009 -2.22167 -0.733487 0.20892 -2.03217e-016 0 -3.88251e-019 -2.71628 -1.3017 -1.99931 0.000816787 9.66376 0.155461 -0.428663 -12.7016 -0.240577 2.03217e-016 0 3.88251e-019 4.31414 5.44856 0.317065 0.000209034 -2.28973 0.00677593 1.59821 -4.94058 7.33095 
-169.518 85.3835 3.43459 -0.546756 0.128016 87.8784 -2.87792 2.87871 3.14944 2.98324 -0.540564 1.03566 3.46959 -3.94326 0.757393 -1.3243 3.82367 0.778862 -0 0 0 -0 0 0 6.22387e-014 3.1314e-012 -1.14798e-014 -8 4.72161e-009 2.60833e-010 -7.94976e-011 -1.17861e-009 -6.60506e-011 4.32171e-010 -6.08818e-009 -8.2433e-010 7.67662e-010 -1.57797e-008 -1.93497e-009 1.32669e-009 -2.72561e-008 -3.34283e-009 7.67664e-010 -1.57797e-008 -1.93498e-009 7.73091 5.47488 0.417314 7.67662e-010 -1.57797e-008 -1.93497e-009 2.90554 0.965183 0.102902 7.67671e-010 -1.57797e-008 -1.93498e-009 10.2786 0.731801 0.0259123 7.67663e-010 -1.57797e-008 -1.93497e-009 2.22167 -0.733487 -0.20892 6.22046e-014 3.1314e-012 -1.15792e-014 -78.205 36.3425 -6.50667 10.3083 -4.33088 -18.3809 0.406902 17.8388 -2.59224 5.84955e-009 -2.01597e-009 -3.10344e-009 1.00642e-008 -3.48391e-009 -5.44784e-009 5.84954e-009 -2.01597e-009 -3.10344e-009 -7.73091 5.47488 -0.417314 5.84955e-009 -2.01597e-009 -3.10344e-009 -2.90554 0.965183 -0.102902 5.84954e-009 -2.01598e-009 -3.10344e-009 -10.2786 0.731801 -0.0259123 5.84955e-009 -2.01597e-009 -3.10345e-009 -2.22167 -0.733487 0.20892 -2.03217e-016 0 -3.88251e-019 -4.06964 0.0921795 -2.57183 -0.000383032 10.1218 0.16641 -0.375399 -15.3984 -0.120065 2.03217e-016 0 3.88251e-019 4.69411 7.14017 0.403143 -0.00203903 -2.35839 -0.00803759 2.1513 -6.86956 8.98036 
